<svg width="170" height="72" viewBox="0 0 170 72" fill="none" xmlns="http://www.w3.org/2000/svg">
<path d="M64.222 50.2C65.454 50.2 66.406 50.494 67.078 51.082C67.7593 51.67 68.1 52.5007 68.1 53.574C68.1 54.694 67.7593 55.5667 67.078 56.192C66.406 56.808 65.454 57.116 64.222 57.116H62.08V60H60.204V50.2H64.222ZM64.124 55.464C64.8333 55.464 65.3747 55.31 65.748 55.002C66.1307 54.694 66.322 54.2367 66.322 53.63C66.322 53.0327 66.1307 52.5847 65.748 52.286C65.3747 51.9873 64.8333 51.838 64.124 51.838H62.08V55.464H64.124ZM69.8613 49.612H71.6813V60H69.8613V49.612ZM78.6499 60V59.09C78.3885 59.4167 78.0525 59.664 77.6419 59.832C77.2312 60 76.7599 60.084 76.2279 60.084C75.7052 60.084 75.2432 59.986 74.8419 59.79C74.4499 59.5847 74.1465 59.3047 73.9319 58.95C73.7172 58.5953 73.6099 58.1987 73.6099 57.76C73.6099 57.06 73.8572 56.514 74.3519 56.122C74.8465 55.7207 75.5465 55.5153 76.4519 55.506H78.6359V55.31C78.6359 54.8713 78.4912 54.5307 78.2019 54.288C77.9125 54.0453 77.4925 53.924 76.9419 53.924C76.2325 53.924 75.4905 54.1573 74.7159 54.624L74.0579 53.364C74.6459 53.0373 75.1779 52.804 75.6539 52.664C76.1392 52.5147 76.7039 52.44 77.3479 52.44C78.3185 52.44 79.0699 52.6733 79.6019 53.14C80.1432 53.6067 80.4185 54.26 80.4279 55.1L80.4419 60H78.6499ZM76.6619 58.684C77.1845 58.684 77.6325 58.5627 78.0059 58.32C78.3792 58.068 78.5892 57.76 78.6359 57.396V56.724H76.7459C76.2605 56.724 75.9012 56.7987 75.6679 56.948C75.4439 57.088 75.3319 57.3213 75.3319 57.648C75.3319 57.9653 75.4485 58.2173 75.6819 58.404C75.9245 58.5907 76.2512 58.684 76.6619 58.684ZM85.7083 60.938C85.4749 61.554 85.1389 62.016 84.7003 62.324C84.2709 62.6413 83.7576 62.8 83.1603 62.8C82.7963 62.8 82.4649 62.744 82.1663 62.632C81.8769 62.5293 81.5876 62.3613 81.2983 62.128L82.0823 60.742C82.2596 60.8727 82.4229 60.966 82.5723 61.022C82.7216 61.0873 82.8803 61.12 83.0483 61.12C83.5429 61.12 83.9069 60.868 84.1403 60.364L84.3643 59.874L81.2703 52.51H83.1603L85.2883 57.956L87.2343 52.51H89.0683L85.7083 60.938ZM90.3975 49.612H92.2175V60H90.3975V49.612ZM94.7621 52.51H96.5821V60H94.7621V52.51ZM95.6581 49.29C95.9568 49.29 96.2041 49.3927 96.4001 49.598C96.5961 49.8033 96.6941 50.0647 96.6941 50.382C96.6941 50.69 96.5961 50.9467 96.4001 51.152C96.2041 51.3573 95.9568 51.46 95.6581 51.46C95.3595 51.46 95.1121 51.3573 94.9161 51.152C94.7201 50.9467 94.6221 50.69 94.6221 50.382C94.6221 50.0647 94.7201 49.8033 94.9161 49.598C95.1121 49.3927 95.3595 49.29 95.6581 49.29ZM103.484 54.54C103.12 54.3253 102.742 54.1573 102.35 54.036C101.968 53.9147 101.613 53.854 101.286 53.854C100.978 53.854 100.731 53.91 100.544 54.022C100.367 54.1247 100.278 54.288 100.278 54.512C100.278 54.7453 100.39 54.9273 100.614 55.058C100.848 55.1793 101.212 55.31 101.706 55.45C102.229 55.6087 102.658 55.7673 102.994 55.926C103.33 56.0753 103.62 56.304 103.862 56.612C104.114 56.9107 104.24 57.3073 104.24 57.802C104.24 58.53 103.96 59.09 103.4 59.482C102.84 59.874 102.136 60.07 101.286 60.07C100.708 60.07 100.143 59.9813 99.5923 59.804C99.0417 59.6173 98.575 59.356 98.1923 59.02L98.8223 57.746C99.1583 58.0353 99.5597 58.264 100.026 58.432C100.493 58.5907 100.936 58.67 101.356 58.67C101.692 58.67 101.958 58.614 102.154 58.502C102.36 58.3807 102.462 58.2033 102.462 57.97C102.462 57.7087 102.346 57.5127 102.112 57.382C101.879 57.2513 101.501 57.1067 100.978 56.948C100.474 56.7987 100.064 56.654 99.7463 56.514C99.429 56.3647 99.1537 56.1453 98.9203 55.856C98.687 55.5573 98.5703 55.17 98.5703 54.694C98.5703 53.9567 98.8363 53.3967 99.3683 53.014C99.9097 52.622 100.586 52.426 101.398 52.426C101.893 52.426 102.378 52.496 102.854 52.636C103.34 52.776 103.769 52.972 104.142 53.224L103.484 54.54ZM110.392 59.538C109.795 59.902 109.17 60.084 108.516 60.084C107.872 60.084 107.345 59.8973 106.934 59.524C106.524 59.1413 106.318 58.5813 106.318 57.844V54.148H105.268L105.254 52.818H106.318V50.76H108.124V52.818H110.266V54.148H108.124V57.522C108.124 57.8673 108.19 58.1147 108.32 58.264C108.451 58.404 108.647 58.474 108.908 58.474C109.188 58.474 109.543 58.3713 109.972 58.166L110.392 59.538Z" fill="#C8C8DB"/>
<path d="M71.2023 22.2079H93.2257C94.437 22.2079 95.4281 22.8153 95.4281 24.0005C95.4281 25.1857 94.437 25.6311 93.2257 25.6311H71.2023C69.9911 25.6311 69 25.1857 69 24.0005C69 22.8153 69.9911 22.2079 71.2023 22.2079ZM71.2023 13.3335H93.2257C94.437 13.3335 95.4281 13.8153 95.4281 15.0005C95.4281 16.1857 94.437 16.5005 93.2257 16.5005H71.2023C69.9911 16.5005 69 16.1857 69 15.0005C69 13.8153 69.9911 13.3335 71.2023 13.3335ZM71.2023 30.7575H84.4164C85.6277 30.7575 86.6187 31.3153 86.6187 32.5005C86.6187 33.6857 85.6277 34.2598 84.4164 34.2598H71.2023C69.9911 34.2598 69 33.6857 69 32.5005C69 31.3153 69.9911 30.7575 71.2023 30.7575ZM91.0234 32.4695V41.585C91.0234 42.4254 91.9484 42.9426 92.6972 42.5116L100.471 37.9431C101.176 37.5336 101.176 36.5208 100.471 36.0898L92.6972 31.5213C92.5272 31.4263 92.3347 31.3766 92.139 31.3771C91.9432 31.3777 91.751 31.4285 91.5816 31.5244C91.4122 31.6204 91.2715 31.7582 91.1735 31.924C91.0756 32.0899 91.0238 32.278 91.0234 32.4695Z" fill="#C8C8DB"/>
</svg>
